# xmcd
#
# Track frame offsets:
#	150
#	12323
#	25212
#	37519
#	49152
#	63620
#	75733
#	90170
#	103593
#	116197
#	131011
#	143630
#	154911
#	168545
#	182720
#	194546
#	207581
#	221582
#	235875
#	246268
#	260024
#	273943
#	286661
#	300851
#
# Disc length: 4192 seconds
#
# Revision: 1
# Processed by: cddbd v1.5.2PL0 Copyright (c) Steve Scherf et al.
# Submitted via: audiograbber 1.83.01
#
DISCID=51105e18
DTITLE=Various Artist - Gastonia Gallop - Cotton Mill Songs and Hillbilly Blues, 1927-19
DTITLE=37
DYEAR=2009
DGENRE=Hillbilly
TTITLE0=David McCarn - Gastonia Gallop
TTITLE1=Three 'Baccer Tags - Get Your Head in Here
TTITLE2=Carolina Twins - Gal of Mine Took My Licker From Me
TTITLE3=David McCarn - Cotton Mill Colic
TTITLE4=Wilmer Watts and The Lonely Eagles - Been on the Job Too Long
TTITLE5=Carolina Twins - Southern Jack
TTITLE6=David McCarn - Everyday Dirt
TTITLE7=Wilmer Watts and The Lonely Eagles - Bonnie Bess
TTITLE8=George Wade and Francum Braswell - Think a Little
TTITLE9=David and Howard - Bay Rum Blues
TTITLE10=Watts and Wilson - Walk Right in Belmont
TTITLE11=Fletcher and Foster - Red Rose Rag
TTITLE12=David McCarn - Poor Man, Rich Man (Cotton Mill Colic No. 2)
TTITLE13=Wilmer Watts and The Lonely Eagles - She's a Hard Boiled Rose
TTITLE14=Carolina Twins - I Want My Black Baby Back
TTITLE15=Three 'Baccer Tags - Ain't Gonna Do It No More
TTITLE16=Wilmer Watts and The Lonely Eagles - Sleepy Desert
TTITLE17=David McCarn - Take Them For a Ride
TTITLE18=Fletcher and Foster - Charlotte Hot Step
TTITLE19=Wilmer Watts and The Lonely Eagles - Cotton Mill Blues
TTITLE20=George Wade and Francum Braswell - When You Go A-Courtin'
TTITLE21=Carolina Twins - A Change in Business All Around
TTITLE22=Wilmer Watts and The Lonely Eagles - Working For My Sally
TTITLE23=Dave and Howard - Serves 'em Fine
EXTD=
EXTT0=
EXTT1=
EXTT2=
EXTT3=
EXTT4=
EXTT5=
EXTT6=
EXTT7=
EXTT8=
EXTT9=
EXTT10=
EXTT11=
EXTT12=
EXTT13=
EXTT14=
EXTT15=
EXTT16=
EXTT17=
EXTT18=
EXTT19=
EXTT20=
EXTT21=
EXTT22=
EXTT23=
PLAYORDER=
